<?xml version="1.0" standalone="no"?>
<!DOCTYPE svg PUBLIC "-//W3C//DTD SVG 20010904//EN"
 "http://www.w3.org/TR/2001/REC-SVG-20010904/DTD/svg10.dtd">
<svg version="1.0" xmlns="http://www.w3.org/2000/svg"
 width="4096.000000pt" height="4096.000000pt" viewBox="0 0 4096.000000 4096.000000"
 preserveAspectRatio="xMidYMid meet">
<metadata>
Created by potrace 1.14, written by Peter Selinger 2001-2017
</metadata>
<g transform="translate(0.000000,4096.000000) scale(0.100000,-0.100000)"
fill="#000000" stroke="none">
<path d="M13290 32629 c-665 -68 -1290 -336 -1795 -770 -247 -212 -491 -499
-659 -778 -61 -100 -175 -325 -220 -431 l-27 -65 -252 0 c-218 0 -269 -3 -378
-23 -504 -91 -925 -312 -1269 -668 -401 -415 -621 -933 -647 -1516 l-6 -147
-46 -6 c-152 -21 -373 -91 -522 -166 -252 -126 -518 -368 -672 -612 -253 -398
-331 -901 -211 -1356 105 -401 356 -750 709 -986 182 -122 377 -204 615 -258
94 -21 110 -22 1138 -25 949 -2 1042 -4 1042 -19 0 -9 -13 -59 -30 -112 -200
-650 -355 -1477 -414 -2211 -55 -676 -45 -1505 25 -2079 l10 -83 -113 -117
c-288 -296 -493 -596 -654 -956 l-62 -140 -34 1 c-18 1 -85 5 -148 9 -210 14
-549 -37 -798 -121 -740 -247 -1305 -858 -1497 -1619 -36 -143 -60 -314 -70
-502 l-7 -122 -72 -11 c-542 -90 -1004 -433 -1252 -930 -139 -278 -206 -626
-175 -915 26 -237 75 -407 176 -610 236 -471 656 -795 1190 -917 l100 -23
3555 -2 3555 -3 175 -146 c613 -511 1308 -966 2052 -1344 l227 -115 1205
-1585 1205 -1585 3 -1260 3 -1260 23 -80 c51 -181 117 -311 228 -447 114 -138
310 -270 489 -327 183 -58 122 -56 1500 -56 1170 0 1277 1 1356 17 430 88 740
380 857 806 l27 97 5 1265 5 1265 1016 1335 c558 734 1097 1442 1197 1573
l182 238 242 123 c1332 672 2506 1605 3469 2756 l62 75 2991 5 2991 6 110 21
c613 120 1106 454 1432 971 286 454 383 1033 264 1579 -69 315 -242 655 -467
915 -201 231 -473 432 -746 550 -51 22 -95 41 -96 43 -2 2 4 70 14 152 20 175
23 524 5 683 -92 814 -434 1495 -1031 2054 -506 474 -1196 776 -1907 837 -202
17 -581 7 -744 -20 -111 -18 -323 -62 -371 -77 -14 -4 -17 5 -22 58 -43 450
-81 742 -141 1069 -371 2024 -1285 3862 -2684 5399 -165 181 -550 563 -736
730 -1332 1196 -2890 2032 -4595 2466 -546 139 -1134 237 -1720 288 -619 54
-1287 54 -1930 0 -1117 -93 -2299 -391 -3332 -840 l-127 -55 -158 158 c-87 88
-207 198 -268 247 -509 405 -1086 640 -1723 701 -166 16 -483 18 -622 4z m560
-399 c560 -51 1077 -257 1520 -606 131 -103 384 -364 486 -499 274 -366 447
-758 529 -1200 28 -155 48 -359 40 -418 -3 -23 -10 -116 -15 -207 -18 -281
-58 -493 -140 -740 -138 -415 -344 -753 -665 -1089 -112 -117 -135 -154 -135
-217 0 -63 51 -144 110 -174 46 -23 125 -26 173 -7 35 15 220 199 315 313 252
303 463 682 577 1034 15 47 30 88 34 92 10 11 224 -98 321 -164 784 -524 994
-1585 470 -2370 -250 -375 -618 -622 -1086 -730 l-99 -23 -4080 -3 c-3737 -3
-4088 -1 -4180 14 -412 67 -772 336 -963 719 -149 300 -172 668 -62 995 83
248 272 503 480 649 94 66 241 141 345 175 149 49 209 58 436 63 l217 5 -4 37
c-38 336 -41 445 -19 635 107 917 863 1632 1770 1673 548 25 1108 -234 1469
-680 149 -186 248 -370 330 -616 56 -172 72 -198 141 -231 56 -27 110 -25 173
6 57 28 95 80 107 145 14 75 -82 360 -191 567 -258 492 -691 879 -1196 1068
-67 25 -77 32 -72 49 3 11 39 88 79 170 300 611 835 1109 1470 1369 236 96
540 170 815 199 79 8 393 6 500 -3z m6901 -293 c1034 -270 2011 -2012 2603
-4642 483 -2145 677 -4737 546 -7285 -109 -2104 -441 -4078 -950 -5635 -330
-1009 -722 -1811 -1162 -2380 -121 -157 -385 -422 -514 -517 -186 -137 -340
-214 -533 -266 -84 -22 -116 -25 -261 -25 -146 -1 -176 2 -261 25 -194 52
-348 129 -533 266 -130 96 -394 362 -514 517 -1481 1912 -2340 6397 -2117
11040 32 665 89 1359 160 1940 22 184 26 202 48 220 14 11 59 47 102 80 108
83 273 251 359 365 293 389 435 809 436 1287 0 400 -104 771 -311 1110 l-41
67 22 80 c12 45 50 176 85 291 478 1582 1111 2717 1790 3213 194 141 359 219
560 262 129 28 351 22 486 -13z m1224 -68 c2737 -379 5256 -1899 6912 -4172
1127 -1547 1804 -3374 1957 -5282 8 -99 14 -180 13 -181 -1 -1 -45 -23 -97
-49 -199 -100 -420 -239 -570 -360 -44 -36 -82 -65 -84 -65 -2 0 -6 63 -10
139 -11 233 -23 276 -90 325 -39 29 -133 29 -172 0 -57 -42 -69 -69 -69 -152
0 -153 27 -517 41 -550 l13 -33 -111 -132 c-192 -229 -398 -564 -499 -812 -18
-44 -35 -83 -38 -87 -3 -4 -67 -2 -141 3 -146 11 -331 1 -493 -27 -801 -137
-1462 -679 -1762 -1444 -85 -216 -138 -481 -151 -752 l-7 -138 -25 0 c-49 0
-259 -53 -357 -90 -247 -92 -424 -208 -616 -399 -254 -255 -397 -521 -474
-882 -142 -665 161 -1382 745 -1762 180 -117 376 -198 597 -249 96 -22 113
-22 941 -25 l843 -4 -27 -32 c-88 -106 -447 -476 -614 -632 -1088 -1019 -2272
-1747 -3655 -2248 -472 -171 -1066 -330 -1590 -426 -155 -29 -562 -91 -593
-91 -7 0 14 25 47 55 33 31 106 108 163 171 324 364 635 854 903 1424 760
1614 1281 3973 1460 6605 52 778 69 1381 62 2310 -5 738 -10 895 -42 1475
-188 3390 -945 6340 -2031 7917 -155 224 -284 381 -472 574 -77 80 -98 106
-80 103 13 -2 91 -13 173 -25z m-2900 -83 c-441 -448 -844 -1107 -1199 -1960
-135 -324 -308 -807 -406 -1136 -24 -80 -45 -146 -46 -148 -1 -2 -40 26 -86
62 -141 108 -350 228 -492 281 l-48 19 6 55 c4 31 12 94 18 141 14 116 14 511
-1 640 -25 217 -69 436 -128 630 -59 198 -201 519 -302 684 l-40 64 177 73
c756 309 1580 541 2327 654 94 14 195 29 225 34 104 16 104 18 -5 -93z m-2371
-6978 c-7 -62 -24 -232 -38 -378 -300 -3143 -93 -6472 566 -9105 460 -1841
1096 -3204 1848 -3964 88 -88 99 -102 74 -97 -16 3 -96 15 -179 26 -1188 168
-2441 589 -3502 1178 -394 218 -814 488 -1148 736 l-169 126 114 0 c666 0
1250 268 1666 763 249 295 409 655 471 1052 35 224 21 547 -34 785 -110 483
-408 930 -818 1231 -95 69 -293 181 -396 224 -52 21 -95 39 -96 40 -2 1 5 53
14 116 21 146 24 596 5 749 -51 415 -162 780 -341 1125 -510 982 -1459 1626
-2560 1735 -158 15 -560 13 -698 -5 -453 -59 -912 -214 -1270 -432 -41 -25
-76 -43 -78 -41 -8 8 -26 292 -36 585 -22 606 19 1279 117 1918 76 493 179
944 331 1447 l56 188 2831 2 2831 3 120 22 c115 22 304 69 314 78 15 16 16 -7
5 -107z m15751 -2708 c1228 -114 2244 -1020 2499 -2227 50 -235 59 -353 46
-598 -24 -488 -110 -837 -300 -1216 -136 -270 -286 -481 -501 -704 -121 -125
-139 -154 -139 -224 0 -61 13 -97 48 -134 71 -76 180 -88 263 -31 98 67 394
419 521 619 128 201 241 433 317 650 23 66 45 128 49 138 7 17 19 13 127 -42
202 -101 330 -196 487 -360 227 -236 380 -535 445 -866 28 -142 25 -483 -5
-632 -31 -156 -73 -276 -147 -428 -259 -528 -757 -878 -1345 -945 -67 -8
-1294 -10 -4145 -8 l-4050 3 -102 27 c-513 137 -877 515 -984 1021 -31 145
-31 372 -1 510 112 509 472 892 957 1019 113 29 133 31 343 36 122 2 222 8
222 12 0 4 -7 76 -16 161 -41 389 -2 700 126 1012 189 460 571 842 1031 1031
203 83 402 126 624 133 452 15 893 -148 1246 -460 255 -226 474 -576 554 -887
21 -83 36 -110 79 -148 64 -56 133 -65 213 -28 77 36 108 88 108 180 -1 129
-124 444 -259 666 -126 205 -325 435 -501 577 -178 143 -405 276 -605 353 -47
18 -88 36 -92 39 -4 3 26 74 66 156 427 879 1234 1460 2206 1589 126 17 463
20 615 6z m-20171 -1370 c1190 -180 2133 -1082 2360 -2256 42 -218 49 -324 36
-559 -18 -336 -54 -552 -137 -808 -135 -419 -346 -771 -657 -1096 -135 -141
-151 -169 -144 -256 8 -99 77 -166 178 -173 88 -6 129 18 256 151 323 339 566
731 714 1152 23 66 45 128 49 137 5 16 18 12 106 -31 205 -98 342 -198 506
-368 181 -188 316 -415 393 -663 61 -198 71 -268 71 -515 0 -242 -13 -334 -75
-527 -41 -127 -156 -353 -237 -468 -87 -121 -271 -306 -393 -393 -180 -128
-422 -235 -660 -289 l-95 -22 -4090 -3 c-4532 -4 -4160 -9 -4372 62 -456 153
-778 521 -879 1006 -28 130 -25 355 4 488 65 289 181 500 383 696 143 139 299
235 478 295 156 52 212 61 444 67 119 3 217 9 217 13 0 4 -7 76 -16 161 -46
433 5 759 172 1107 164 343 423 626 749 817 383 226 861 308 1281 221 496
-104 936 -423 1200 -872 83 -142 163 -332 194 -461 43 -185 260 -235 365 -85
46 67 42 138 -18 317 -84 248 -227 510 -388 710 -144 179 -369 378 -574 505
-90 56 -313 164 -392 191 -35 11 -63 26 -63 33 0 27 165 340 238 451 126 192
214 299 386 471 462 460 1007 724 1676 810 157 20 554 11 734 -16z m4603
-9424 c545 -195 1209 -365 1815 -465 454 -76 1124 -140 1456 -141 l82 0 0
-900 0 -900 -827 2 -828 3 -737 970 c-1083 1423 -1130 1485 -1121 1485 5 0 76
-24 160 -54z m7146 -220 c-114 -151 -534 -704 -933 -1230 l-725 -955 -827 0
-828 -1 0 900 0 900 78 0 c123 0 438 19 677 41 878 80 1689 251 2505 527 113
38 216 74 230 80 14 6 26 11 28 11 1 1 -91 -122 -205 -273z m-1788 -3821 l0
-1150 -22 -70 c-58 -183 -205 -336 -381 -397 l-67 -23 -1290 0 -1290 0 -69 24
c-145 50 -277 167 -345 306 -62 126 -61 90 -61 1332 l0 1133 1763 -3 1762 -2
0 -1150z"/>
<path d="M14538 31564 c-33 -17 -58 -62 -58 -101 0 -53 33 -89 130 -139 264
-136 508 -345 684 -585 120 -164 133 -178 170 -184 43 -8 99 15 123 51 33 51
24 100 -35 187 -212 312 -498 569 -825 741 -95 50 -140 57 -189 30z"/>
<path d="M29190 24999 c-32 -13 -68 -47 -86 -81 -26 -50 -17 -99 55 -284 213
-553 361 -1053 466 -1579 25 -125 52 -240 60 -255 46 -88 178 -107 250 -35 61
61 62 84 11 337 -81 403 -199 839 -331 1228 -86 251 -214 581 -241 616 -41 55
-120 78 -184 53z"/>
<path d="M12228 23354 c-35 -19 -48 -43 -48 -93 0 -27 7 -48 23 -64 17 -19
892 -697 1400 -1085 58 -44 75 -52 111 -52 77 0 124 74 91 142 -12 24 -204
178 -736 588 -397 305 -731 560 -743 567 -28 16 -65 15 -98 -3z"/>
<path d="M13249 23241 c-23 -24 -29 -38 -29 -73 0 -24 6 -50 13 -59 12 -16
354 -284 415 -326 63 -42 130 -24 159 44 31 75 16 89 -400 406 -64 48 -115 51
-158 8z"/>
<path d="M12234 22671 c-52 -22 -73 -117 -36 -159 9 -11 184 -148 387 -303
367 -282 370 -284 418 -284 41 0 53 5 73 28 33 38 34 108 2 140 -13 12 -187
148 -386 301 -380 290 -399 302 -458 277z"/>
<path d="M33134 21446 c-47 -21 -74 -62 -74 -111 0 -59 24 -85 138 -145 305
-163 554 -390 746 -681 50 -77 100 -100 159 -76 49 21 77 61 77 111 0 35 -10
57 -61 132 -210 308 -475 547 -799 721 -110 59 -143 68 -186 49z"/>
<path d="M12783 20120 c-84 -51 -102 -162 -38 -238 13 -15 61 -48 107 -71 297
-154 548 -380 737 -663 39 -58 61 -81 94 -97 55 -27 82 -26 137 2 59 30 82 65
87 129 4 47 0 60 -30 110 -101 165 -293 384 -461 525 -107 90 -292 213 -416
278 -101 52 -162 59 -217 25z"/>
<path d="M6008 15604 c-59 -32 -139 -248 -165 -443 -15 -114 -15 -147 -5 -241
19 -166 84 -367 150 -465 53 -77 134 -92 191 -34 49 48 47 78 -8 198 -88 192
-115 351 -87 533 16 106 43 193 86 278 48 93 0 190 -93 190 -23 -1 -54 -7 -69
-16z"/>
<path d="M19117 6766 c-100 -36 -127 -123 -92 -291 62 -293 330 -518 627 -528
62 -1 79 2 112 22 64 40 92 125 62 194 -27 63 -64 86 -165 102 -113 19 -172
47 -234 114 -61 65 -86 121 -96 214 -5 41 -13 83 -19 94 -16 30 -80 83 -100
83 -9 0 -26 2 -37 5 -11 3 -37 -2 -58 -9z"/>
</g>
</svg>
